<?xml version="1.0" standalone="no"?>
<!DOCTYPE svg PUBLIC "-//W3C//DTD SVG 20010904//EN"
 "http://www.w3.org/TR/2001/REC-SVG-20010904/DTD/svg10.dtd">
<svg version="1.0" xmlns="http://www.w3.org/2000/svg"
 width="319.000000pt" height="319.000000pt" viewBox="0 0 319.000000 319.000000"
 preserveAspectRatio="xMidYMid meet">
<metadata>
Created by potrace 1.14, written by Peter Selinger 2001-2017
</metadata>
<g transform="translate(0.000000,319.000000) scale(0.100000,-0.100000)"
fill="#000000" stroke="none">
<path d="M570 1590 l0 -1580 110 0 110 0 2 697 3 696 255 142 c140 78 330 184
422 234 l168 92 40 -22 40 -23 0 -553 0 -553 -200 0 -200 0 0 -355 0 -355 655
0 655 0 2 650 c2 358 3 698 3 756 l0 107 -260 149 c-143 82 -349 198 -457 259
l-198 111 0 232 c0 209 -2 234 -17 248 -10 8 -119 72 -243 143 -124 70 -372
213 -552 316 -179 104 -329 189 -332 189 -3 0 -6 -711 -6 -1580z m1580 -540
l0 -100 -135 0 -135 0 0 100 0 100 135 0 135 0 0 -100z m320 0 l0 -100 -135 0
-135 0 0 100 0 100 135 0 135 0 0 -100z m-320 -240 l0 -100 -135 0 -135 0 0
100 0 100 135 0 135 0 0 -100z m320 0 l0 -100 -135 0 -135 0 0 100 0 100 135
0 135 0 0 -100z"/>
</g>
</svg>
